<mxfile host="app.diagrams.net" agent="Mozilla/5.0 (Windows NT 10.0; Win64; x64) AppleWebKit/537.36 (KHTML, like Gecko) Chrome/140.0.0.0 Safari/537.36" version="28.2.3">
  <diagram name="Trang-1" id="tx0tOLe0ebeHfLNTeAjb">
    <mxGraphModel dx="780" dy="451" grid="1" gridSize="10" guides="1" tooltips="1" connect="1" arrows="1" fold="1" page="1" pageScale="1" pageWidth="827" pageHeight="1169" math="0" shadow="0">
      <root>
        <mxCell id="0" />
        <mxCell id="1" parent="0" />
        <mxCell id="dcd22xgBDRz-Wt_h7stV-18" value="" style="curved=1;endArrow=classic;html=1;rounded=0;entryX=1;entryY=0.5;entryDx=0;entryDy=0;exitX=1;exitY=0.5;exitDx=0;exitDy=0;" edge="1" parent="1" source="dcd22xgBDRz-Wt_h7stV-16">
          <mxGeometry width="50" height="50" relative="1" as="geometry">
            <mxPoint x="475" y="930" as="sourcePoint" />
            <mxPoint x="470" y="830" as="targetPoint" />
            <Array as="points">
              <mxPoint x="540" y="920" />
              <mxPoint x="580" y="900" />
              <mxPoint x="640" y="840" />
            </Array>
          </mxGeometry>
        </mxCell>
        <mxCell id="dcd22xgBDRz-Wt_h7stV-103" value="" style="endArrow=classic;html=1;rounded=0;exitX=1;exitY=0.5;exitDx=0;exitDy=0;entryX=1;entryY=0.5;entryDx=0;entryDy=0;" edge="1" parent="1" source="dcd22xgBDRz-Wt_h7stV-91">
          <mxGeometry width="50" height="50" relative="1" as="geometry">
            <mxPoint x="430" y="780" as="sourcePoint" />
            <mxPoint x="414" y="520" as="targetPoint" />
            <Array as="points">
              <mxPoint x="480" y="640" />
              <mxPoint x="560" y="640" />
              <mxPoint x="560" y="520" />
            </Array>
          </mxGeometry>
        </mxCell>
        <mxCell id="dcd22xgBDRz-Wt_h7stV-104" value="Chưa xong" style="edgeLabel;html=1;align=center;verticalAlign=middle;resizable=0;points=[];" vertex="1" connectable="0" parent="dcd22xgBDRz-Wt_h7stV-103">
          <mxGeometry x="-0.0187" relative="1" as="geometry">
            <mxPoint as="offset" />
          </mxGeometry>
        </mxCell>
        <mxCell id="dcd22xgBDRz-Wt_h7stV-133" value="Start" style="ellipse;whiteSpace=wrap;html=1;" vertex="1" parent="1">
          <mxGeometry x="370" y="10" width="120" height="80" as="geometry" />
        </mxCell>
        <mxCell id="dcd22xgBDRz-Wt_h7stV-149" value="End" style="ellipse;whiteSpace=wrap;html=1;" vertex="1" parent="1">
          <mxGeometry x="370" y="640" width="120" height="80" as="geometry" />
        </mxCell>
        <mxCell id="dcd22xgBDRz-Wt_h7stV-150" value="Nhập số nguyên N" style="shape=parallelogram;perimeter=parallelogramPerimeter;whiteSpace=wrap;html=1;fixedSize=1;" vertex="1" parent="1">
          <mxGeometry x="370" y="150" width="120" height="60" as="geometry" />
        </mxCell>
        <mxCell id="dcd22xgBDRz-Wt_h7stV-151" value="Tạo biến tính tổng S=1 và giá trị ban đầu a=1" style="rounded=0;whiteSpace=wrap;html=1;" vertex="1" parent="1">
          <mxGeometry x="370" y="270" width="120" height="60" as="geometry" />
        </mxCell>
        <mxCell id="dcd22xgBDRz-Wt_h7stV-152" value="Kiểm tra a&amp;lt;=N" style="rhombus;whiteSpace=wrap;html=1;" vertex="1" parent="1">
          <mxGeometry x="370" y="390" width="120" height="80" as="geometry" />
        </mxCell>
        <mxCell id="dcd22xgBDRz-Wt_h7stV-153" value="In ra tổng S" style="shape=parallelogram;perimeter=parallelogramPerimeter;whiteSpace=wrap;html=1;fixedSize=1;" vertex="1" parent="1">
          <mxGeometry x="370" y="530" width="120" height="60" as="geometry" />
        </mxCell>
        <mxCell id="dcd22xgBDRz-Wt_h7stV-154" value="" style="endArrow=classic;html=1;rounded=0;entryX=0.5;entryY=0;entryDx=0;entryDy=0;exitX=0.5;exitY=1;exitDx=0;exitDy=0;" edge="1" parent="1" source="dcd22xgBDRz-Wt_h7stV-152" target="dcd22xgBDRz-Wt_h7stV-153">
          <mxGeometry width="50" height="50" relative="1" as="geometry">
            <mxPoint x="490" y="430" as="sourcePoint" />
            <mxPoint x="540" y="380" as="targetPoint" />
          </mxGeometry>
        </mxCell>
        <mxCell id="dcd22xgBDRz-Wt_h7stV-155" value="False" style="edgeLabel;html=1;align=center;verticalAlign=middle;resizable=0;points=[];" vertex="1" connectable="0" parent="dcd22xgBDRz-Wt_h7stV-154">
          <mxGeometry x="-0.1111" y="1" relative="1" as="geometry">
            <mxPoint as="offset" />
          </mxGeometry>
        </mxCell>
        <mxCell id="dcd22xgBDRz-Wt_h7stV-156" value="a=a+1&lt;div&gt;S*=a&lt;/div&gt;" style="rounded=0;whiteSpace=wrap;html=1;" vertex="1" parent="1">
          <mxGeometry x="110" y="400" width="120" height="60" as="geometry" />
        </mxCell>
        <mxCell id="dcd22xgBDRz-Wt_h7stV-157" value="" style="endArrow=classic;html=1;rounded=0;exitX=0;exitY=0.5;exitDx=0;exitDy=0;entryX=1;entryY=0.5;entryDx=0;entryDy=0;" edge="1" parent="1" source="dcd22xgBDRz-Wt_h7stV-152" target="dcd22xgBDRz-Wt_h7stV-156">
          <mxGeometry width="50" height="50" relative="1" as="geometry">
            <mxPoint x="320" y="410" as="sourcePoint" />
            <mxPoint x="370" y="360" as="targetPoint" />
          </mxGeometry>
        </mxCell>
        <mxCell id="dcd22xgBDRz-Wt_h7stV-158" value="True" style="edgeLabel;html=1;align=center;verticalAlign=middle;resizable=0;points=[];" vertex="1" connectable="0" parent="dcd22xgBDRz-Wt_h7stV-157">
          <mxGeometry x="0.1238" y="-4" relative="1" as="geometry">
            <mxPoint as="offset" />
          </mxGeometry>
        </mxCell>
        <mxCell id="dcd22xgBDRz-Wt_h7stV-159" value="" style="curved=1;endArrow=classic;html=1;rounded=0;exitX=0.5;exitY=0;exitDx=0;exitDy=0;entryX=0;entryY=0;entryDx=0;entryDy=0;" edge="1" parent="1" source="dcd22xgBDRz-Wt_h7stV-156" target="dcd22xgBDRz-Wt_h7stV-152">
          <mxGeometry width="50" height="50" relative="1" as="geometry">
            <mxPoint x="150" y="380" as="sourcePoint" />
            <mxPoint x="200" y="330" as="targetPoint" />
            <Array as="points">
              <mxPoint x="150" y="330" />
            </Array>
          </mxGeometry>
        </mxCell>
        <mxCell id="dcd22xgBDRz-Wt_h7stV-160" value="" style="endArrow=classic;html=1;rounded=0;exitX=0.5;exitY=1;exitDx=0;exitDy=0;entryX=0.5;entryY=0;entryDx=0;entryDy=0;" edge="1" parent="1" source="dcd22xgBDRz-Wt_h7stV-153" target="dcd22xgBDRz-Wt_h7stV-149">
          <mxGeometry width="50" height="50" relative="1" as="geometry">
            <mxPoint x="510" y="630" as="sourcePoint" />
            <mxPoint x="560" y="580" as="targetPoint" />
          </mxGeometry>
        </mxCell>
        <mxCell id="dcd22xgBDRz-Wt_h7stV-161" value="" style="endArrow=classic;html=1;rounded=0;exitX=0.5;exitY=1;exitDx=0;exitDy=0;" edge="1" parent="1" source="dcd22xgBDRz-Wt_h7stV-151" target="dcd22xgBDRz-Wt_h7stV-152">
          <mxGeometry width="50" height="50" relative="1" as="geometry">
            <mxPoint x="550" y="400" as="sourcePoint" />
            <mxPoint x="600" y="350" as="targetPoint" />
          </mxGeometry>
        </mxCell>
        <mxCell id="dcd22xgBDRz-Wt_h7stV-162" value="" style="endArrow=classic;html=1;rounded=0;exitX=0.5;exitY=1;exitDx=0;exitDy=0;" edge="1" parent="1" source="dcd22xgBDRz-Wt_h7stV-150" target="dcd22xgBDRz-Wt_h7stV-151">
          <mxGeometry width="50" height="50" relative="1" as="geometry">
            <mxPoint x="590" y="240" as="sourcePoint" />
            <mxPoint x="640" y="190" as="targetPoint" />
          </mxGeometry>
        </mxCell>
        <mxCell id="dcd22xgBDRz-Wt_h7stV-163" value="" style="endArrow=classic;html=1;rounded=0;exitX=0.5;exitY=1;exitDx=0;exitDy=0;entryX=0.5;entryY=0;entryDx=0;entryDy=0;" edge="1" parent="1" source="dcd22xgBDRz-Wt_h7stV-133" target="dcd22xgBDRz-Wt_h7stV-150">
          <mxGeometry width="50" height="50" relative="1" as="geometry">
            <mxPoint x="500" y="130" as="sourcePoint" />
            <mxPoint x="550" y="80" as="targetPoint" />
          </mxGeometry>
        </mxCell>
      </root>
    </mxGraphModel>
  </diagram>
</mxfile>
